<svg width="48" height="48" viewBox="0 0 48 48" fill="none" xmlns="http://www.w3.org/2000/svg">
    <path fill-rule="evenodd" clip-rule="evenodd"
        d="M32.6504 14.8024C35.5997 14.8024 38.0434 17.2146 38.0434 20.1954C38.0434 23.1763 35.5985 25.5799 32.6504 25.5799C29.7024 25.5799 27.2659 23.1726 27.2659 20.1954C27.2659 17.2182 29.7012 14.8024 32.6504 14.8024ZM16.0679 14.7416C19.05 14.7416 21.5266 17.1817 21.5266 20.1954C21.5266 23.2091 19.05 25.6443 16.0679 25.6443C13.0859 25.6443 10.6142 23.2042 10.6142 20.1954C10.6142 17.1866 13.0907 14.7416 16.0679 14.7416ZM5 38.4366V20.1626C5 14.7088 9.25316 8.90873 16.0679 9.00109C20.7926 9.06671 22.8876 11.2492 24.3458 12.581C25.3642 11.6332 27.9622 8.95977 32.5569 9.00109C39.2173 9.05699 43.6661 14.2033 43.6576 20.1942L43.6248 38.4354H38.0447V29.8926C34.5206 31.6364 30.875 31.8928 27.2343 30.019V38.4366H21.4622V30.019C17.751 31.8928 14.0398 31.7336 10.6142 30.019V38.4366H5Z"
        fill="black" />
</svg>